# xmcd
#
# Track frame offsets:
#	164
#	16443
#	36805
#	54459
#	75413
#	90984
#	107510
#	131978
#	149501
#	164906
#	187826
#	205317
#	220161
#	237563
#
# Disc length: 3477 seconds
#
# Revision: 2
# Processed by: cddbd v1.4PL0 Copyright (c) Steve Scherf et al.
# Submitted via: CDmax 1.9
#
DISCID=c40d930e
DTITLE=Gabriel Gordon - Gypsy Living
DYEAR=2003
DGENRE=Rock
TTITLE0=Watch The Sky
TTITLE1=Easy With You
TTITLE2=Gypsy Living
TTITLE3=The Sea
TTITLE4=Essence
TTITLE5=We're Moving
TTITLE6=Find A Way
TTITLE7=Time To Get Away
TTITLE8=Nothing's New
TTITLE9=Falling Into You
TTITLE10=Key To The City
TTITLE11=Been Here Before
TTITLE12=Gypsy Living (Reprise)
TTITLE13=Home
EXTD=
EXTT0=
EXTT1=
EXTT2=
EXTT3=
EXTT4=
EXTT5=
EXTT6=
EXTT7=
EXTT8=
EXTT9=
EXTT10=
EXTT11=
EXTT12=
EXTT13=
PLAYORDER=
